# xmcd
#
# Track frame offsets: 
#        150
#        11135
#        19989
#        30324
#        40811
#        56451
#        72877
#        85127
#        98205
#        104079
#        115766
#        127799
#        137106
#        149121
#        164665
#        178323
#        197261
#        210602
#        222026
#        234638
#        253322
#        274018
#        288684
#        300038
#
# Disc length: 4211 seconds
#
# Revision: 0
# Processed by: cddbd v1.5.2PL0 Copyright (c) Steve Scherf et al.
# Submitted via: ExactAudioCopy v0.99pb5
#
DISCID=62107118
DTITLE=Jesse Winchester - Learn To Love It and Let The Rough Side Drag
DYEAR=1900
DGENRE=
TTITLE0=Wake me
TTITLE1=Every word you say
TTITLE2=How far to the horizon
TTITLE3=L'air de la Louisiana
TTITLE4=Mississippi, you're on my mind
TTITLE5=Third rate romance
TTITLE6=Defying garvity
TTITLE7=Tell me why you look like Roosevelt
TTITLE8=Pharaoh's army
TTITLE9=Laisse les bons temps rouler
TTITLE10=The end is not in sight
TTITLE11=You can't stand up alone
TTITLE12=Let the rough side drag
TTITLE13=Damned if you do
TTITLE14=Step by step
TTITLE15=Lay down your burden
TTITLE16=Everybody knows but me
TTITLE17=Blow on, chilly wind
TTITLE18=Working in the vineyard
TTITLE19=How about you
TTITLE20=It takes more than a hammer and nails to make a house a home
TTITLE21=As soon as I get on my feet
TTITLE22=The only show in town
TTITLE23=The brand new Tennessee waltz (Reprise)
EXTD=
EXTT0=
EXTT1=
EXTT2=
EXTT3=
EXTT4=
EXTT5=
EXTT6=
EXTT7=
EXTT8=
EXTT9=
EXTT10=
EXTT11=
EXTT12=
EXTT13=
EXTT14=
EXTT15=
EXTT16=
EXTT17=
EXTT18=
EXTT19=
EXTT20=
EXTT21=
EXTT22=
EXTT23=
PLAYORDER=
